HIERARCHY
ROOT Hips
{
	OFFSET 0.000000 0.000000 0.000000 
	CHANNELS 6 Xposition Yposition Zposition Yrotation Zrotation Xrotation 
	JOINT Lumbar
	{
		OFFSET 0.000000 0.000000 0.000000 
		CHANNELS 3 Zrotation Xrotation Yrotation
		JOINT Neck
		{
			OFFSET 0.000000 0.445665 0.000000 
			CHANNELS 3 Zrotation Xrotation Yrotation
			End Site
			{
				OFFSET 0.000000 0.227535 0.000000 
			}
		}
		JOINT RightShoulder
		{
			OFFSET 0.019635 0.377685 0.194865 
			CHANNELS 3 Zrotation Xrotation Yrotation
			JOINT RightElbow
			{
				OFFSET 0.000000 -0.243375 0.000000 
				CHANNELS 2 Zrotation Yrotation
				JOINT RightWrist
				{
					OFFSET 0.000000 -0.264825 0.000000 
					CHANNELS 2 Zrotation Xrotation
					End Site
					{
						OFFSET 0.006600 -0.176220 0.000990 
					}
				}
			}
		}
		JOINT LeftShoulder
		{
			OFFSET 0.019635 0.377685 -0.194865 
			CHANNELS 3 Zrotation Xrotation Yrotation
			JOINT LeftElbow
			{
				OFFSET 0.000000 -0.243375 0.000000 
				CHANNELS 2 Zrotation Yrotation
				JOINT LeftWrist
				{
					OFFSET 0.000000 -0.264825 0.000000 
					CHANNELS 2 Zrotation Xrotation
					End Site
					{
						OFFSET 0.006600 -0.176220 -0.000990 
					}
				}
			}
		}
	}
	JOINT RightHip
	{
		OFFSET 0.052140 -0.069960 0.075570 
		CHANNELS 3 Zrotation Xrotation Yrotation
		JOINT RightKnee
		{
			OFFSET 0.000000 -0.402270 0.000000 
			CHANNELS 1 Zrotation
			JOINT RightAnkle
			{
				OFFSET 0.000000 -0.404085 0.000000 
				CHANNELS 3 Zrotation Xrotation Yrotation
				End Site
				{
					OFFSET 0.204105 -0.089430 0.008415 
				}
			}
		}
	}
	JOINT LeftHip
	{
		OFFSET 0.052140 -0.069960 -0.075570 
		CHANNELS 3 Zrotation Xrotation Yrotation
		JOINT LeftKnee
		{
			OFFSET 0.000000 -0.402270 0.000000 
			CHANNELS 1 Zrotation
			JOINT LeftAnkle
			{
				OFFSET 0.000000 -0.404085 0.000000 
				CHANNELS 3 Zrotation Xrotation Yrotation
				End Site
				{
					OFFSET 0.204105 -0.089430 -0.008415 
				}
			}
		}
	}
}
MOTION
Frames: 17
Frame Time: 0.02
0.10678 0.04011 -0.26422 -159.31419 -36.90476 -0.5368 42.69998 4.54151 9.63438 11.46314 -0.16382 -0.82022 93.05589 11.39372 64.1591 63.4272 81.58453 -1.51775 -5.53971 122.04485 35.70733 90.00318 5.76071 -83.05853 -10.64489 4.01474 44.15137 0.9726 -9.75931 -16.85652 -7.54695 -4.09626 -2.86074 42.87437 4.53471 2.69857 -23.01517 -7.00924 2.65589 2.05324
0.10731 0.04008 -0.26401 -159.50824 -36.90395 -0.56204 42.76167 4.56197 9.25621 11.41883 -0.15647 -0.82024 91.15942 11.41019 64.17995 63.87145 81.68351 -1.46762 -5.85231 121.97428 36.22296 90.00426 5.72938 -82.91142 -10.81314 4.01974 44.18942 0.92285 -9.92285 -16.86515 -7.52991 -4.05455 -2.83427 42.88645 4.57319 3.05564 -23.03818 -7.00499 2.6406 2.04185
0.10775 0.04005 -0.26387 -159.74115 -36.91352 -0.59431 42.82534 4.57866 8.86114 11.40675 -0.1818 -0.82027 88.84698 11.40169 64.17081 64.39743 82.0132 -1.28114 -6.20545 121.92503 36.78622 90.00434 5.67453 -82.67028 -10.99522 4.02796 44.23551 0.86063 -10.2148 -16.87605 -7.5046 -3.99589 -2.79668 42.90128 4.64737 3.55916 -23.06172 -7.00001 2.61493 2.02258
0.10823 0.04002 -0.26371 -159.95998 -36.91868 -0.62398 42.88723 4.59421 8.4683 11.37842 -0.18657 -0.82029 86.66892 11.37487 64.1471 64.90511 82.22458 -1.13163 -6.51268 121.87276 37.33787 90.004 5.63112 -82.48223 -11.17117 4.03444 44.27885 0.80679 -10.43065 -16.88579 -7.48377 -3.94615 -2.76502 42.91514 4.701 3.97551 -23.08513 -6.99549 2.59662 2.00874
0.10872 0.03999 -0.26353 -160.16139 -36.92295 -0.65062 42.95274 4.62195 8.09644 11.36018 -0.22097 -0.82031 84.69791 11.47558 64.23516 65.35195 82.48516 -1.06899 -6.93152 121.79135 37.84734 90.00424 5.58494 -82.25047 -11.3457 4.04149 44.31901 0.74122 -10.7196 -16.89623 -7.46004 -3.89159 -2.72989 42.92877 4.77116 4.47176 -23.10813 -6.99046 2.56772 1.9875
0.10918 0.03995 -0.26339 -160.40992 -36.93164 -0.68566 43.01116 4.62332 7.67708 11.32697 -0.19857 -0.82034 82.20578 11.29797 64.08223 65.93607 82.70119 -0.80194 -7.13089 121.77697 38.45708 90.00417 5.53894 -82.08996 -11.52683 4.04937 44.3677 0.69731 -10.88815 -16.90569 -7.44029 -3.84278 -2.69916 42.94332 4.81628 4.83985 -23.1321 -6.98636 2.5583 1.97967
0.10958 0.03988 -0.26336 -160.77036 -36.94717 -0.73952 43.05034 4.55306 7.13745 11.24845 -0.02014 -0.82036 78.37977 10.42953 63.31766 66.89922 82.73501 0.01671 -6.6938 121.93168 39.31778 90.00423 5.49742 -82.11786 -11.72197 4.046 44.43494 0.71527 -10.6854 -16.91196 -7.43404 -3.81572 -2.68435 42.95788 4.78052 4.80979 -23.15868 -6.98446 2.60385 2.01063
0.10997 0.03978 -0.26336 -161.17885 -36.96735 -0.80212 43.08221 4.45635 6.54958 11.15261 0.21882 -0.82039 74.04767 9.26866 62.30392 67.99113 82.71749 1.02927 -6.03875 122.1552 40.28033 90.00433 5.45721 -82.22627 -11.92343 4.04559 44.51104 0.75559 -10.35928 -16.91714 -7.43197 -3.79459 -2.67408 42.97356 4.7192 4.64884 -23.18622 -6.9836 2.66946 2.05532
0.11036 0.0397 -0.26335 -161.57107 -36.98699 -0.8625 43.11693 4.37147 5.97993 11.06167 0.43661 -0.82042 69.94697 8.19595 61.37632 69.00918 82.72642 1.93842 -5.49718 122.35421 41.20523 90.00438 5.41737 -82.31777 -12.12281 4.05215 44.58475 0.78648 -10.09375 -16.92276 -7.42765 -3.76976 -2.66108 42.98963 4.67158 4.55335 -23.2133 -6.98263 2.72679 2.09382
0.11075 0.03961 -0.26333 -161.94054 -36.99984 -0.91573 43.1537 4.2871 5.42587 10.98437 0.62669 -0.82045 65.82039 7.31307 60.56466 70.09702 82.73045 2.92095 -4.89563 122.52516 42.09482 90.00444 5.37233 -82.32237 -12.31978 4.02392 44.65129 0.81424 -9.81069 -16.92866 -7.42454 -3.74904 -2.65074 43.00159 4.61587 4.43479 -23.24048 -6.98015 2.78052 2.13197
0.11114 0.03952 -0.26334 -162.36904 -37.02844 -0.98583 43.18445 4.19563 4.82736 10.8742 0.88894 -0.82048 61.63932 5.9633 59.44927 71.06662 82.72906 3.7901 -4.36727 122.77097 43.0822 90.00454 5.33915 -82.52901 -12.52252 4.06854 44.73543 0.8535 -9.53681 -16.93372 -7.41997 -3.72082 -2.63577 43.02288 4.57114 4.33485 -23.26772 -6.98102 2.84629 2.17403
0.11152 0.03939 -0.26344 -162.94274 -37.09386 -1.10026 43.20016 4.08926 4.12481 10.67647 1.33894 -0.8205 57.38194 3.41633 57.58548 71.69627 82.72843 4.33835 -4.08956 123.20201 44.30847 90.00472 5.33446 -83.26506 -12.74414 4.31507 44.86031 0.92376 -9.28493 -16.93645 -7.41068 -3.67563 -2.60971 43.06485 4.557 4.28604 -23.29458 -6.99151 2.94367 2.22522
0.11191 0.03925 -0.26356 -163.57523 -37.17592 -1.2313 43.21009 3.97703 3.37812 10.44635 1.85887 -0.82053 53.09955 0.40617 55.41882 72.1981 82.72239 4.75801 -3.89372 123.70568 45.63035 90.0049 5.34227 -84.20143 -12.97031 4.6339 45.00361 1.00422 -9.05079 -16.93842 -7.39978 -3.62198 -2.57847 43.11702 4.5555 4.26473 -23.32155 -7.00528 3.05203 2.27967
0.11229 0.03911 -0.26368 -164.18449 -37.25394 -1.35478 43.22276 3.8686 2.64704 10.23146 2.34505 -0.82055 48.86219 -2.4056 53.37245 72.74681 82.71557 5.20934 -3.6633 124.18046 46.91259 90.00518 5.34733 -85.05525 -13.19151 4.91943 45.14216 1.07676 -8.83166 -16.94091 -7.38941 -3.56867 -2.54769 43.16768 4.55228 4.25259 -23.34868 -7.01709 3.15313 2.33148
0.11266 0.03898 -0.26379 -164.7804 -37.31736 -1.47873 43.23466 3.75429 1.93254 10.01353 2.84236 -0.82058 44.46098 -5.1776 51.39277 73.34961 82.7207 5.77906 -3.41418 124.64484 48.18321 90.00525 5.34097 -85.8855 -13.42568 5.20948 45.26578 1.16317 -8.51662 -16.94262 -7.37993 -3.52963 -2.52464 43.20525 4.53219 4.14879 -23.37489 -7.03074 3.26402 2.38836
0.11307 0.03884 -0.26391 -165.41785 -37.41497 -1.6054 43.24696 3.65134 1.17429 9.79486 3.3314 -0.82061 40.40648 -8.13717 49.20281 73.80492 82.7004 6.07099 -3.22634 125.14151 49.4983 90.00549 5.36021 -86.79946 -13.63323 5.50405 45.42472 1.22381 -8.39997 -16.9458 -7.36827 -3.4597 -2.48472 43.27243 4.54934 4.23876 -23.40314 -7.04155 3.35745 2.43563
0.11363 0.03869 -0.26407 -166.15182 -37.60394 -1.73671 43.26132 3.57984 0.30059 9.57858 3.78762 -0.82063 37.27865 -11.51266 46.53296 73.90849 82.61009 5.60992 -3.18847 125.75495 50.92084 90.00623 5.45712 -87.9959 -13.77119 5.82001 45.67665 1.2018 -8.89027 -16.95315 -7.35019 -3.29836 -2.39476 43.41938 4.67704 4.90426 -23.43609 -7.0416 3.39483 2.45238
